<svg id="container" width="510.546875" xmlns="http://www.w3.org/2000/svg" class="flowchart" height="1651.53125" viewBox="0 0 510.546875 1651.53125" role="graphics-document document" aria-roledescription="flowchart-v2"><style>#container{font-family:"trebuchet ms",verdana,arial,sans-serif;font-size:16px;fill:#333;}@keyframes edge-animation-frame{from{stroke-dashoffset:0;}}@keyframes dash{to{stroke-dashoffset:0;}}#container .edge-animation-slow{stroke-dasharray:9,5!important;stroke-dashoffset:900;animation:dash 50s linear infinite;stroke-linecap:round;}#container .edge-animation-fast{stroke-dasharray:9,5!important;stroke-dashoffset:900;animation:dash 20s linear infinite;stroke-linecap:round;}#container .error-icon{fill:#552222;}#container .error-text{fill:#552222;stroke:#552222;}#container .edge-thickness-normal{stroke-width:1px;}#container .edge-thickness-thick{stroke-width:3.5px;}#container .edge-pattern-solid{stroke-dasharray:0;}#container .edge-thickness-invisible{stroke-width:0;fill:none;}#container .edge-pattern-dashed{stroke-dasharray:3;}#container .edge-pattern-dotted{stroke-dasharray:2;}#container .marker{fill:#333333;stroke:#333333;}#container .marker.cross{stroke:#333333;}#container svg{font-family:"trebuchet ms",verdana,arial,sans-serif;font-size:16px;}#container p{margin:0;}#container .label{font-family:"trebuchet ms",verdana,arial,sans-serif;color:#333;}#container .cluster-label text{fill:#333;}#container .cluster-label span{color:#333;}#container .cluster-label span p{background-color:transparent;}#container .label text,#container span{fill:#333;color:#333;}#container .node rect,#container .node circle,#container .node ellipse,#container .node polygon,#container .node path{fill:#ECECFF;stroke:#9370DB;stroke-width:1px;}#container .rough-node .label text,#container .node .label text,#container .image-shape .label,#container .icon-shape .label{text-anchor:middle;}#container .node .katex path{fill:#000;stroke:#000;stroke-width:1px;}#container .rough-node .label,#container .node .label,#container .image-shape .label,#container .icon-shape .label{text-align:center;}#container .node.clickable{cursor:pointer;}#container .root .anchor path{fill:#333333!important;stroke-width:0;stroke:#333333;}#container .arrowheadPath{fill:#333333;}#container .edgePath .path{stroke:#333333;stroke-width:1px;}#container .flowchart-link{stroke:#333333;fill:none;}#container .edgeLabel{background-color:rgba(232,232,232, 0.8);text-align:center;}#container .edgeLabel p{background-color:rgba(232,232,232, 0.8);}#container .edgeLabel rect{opacity:0.5;background-color:rgba(232,232,232, 0.8);fill:rgba(232,232,232, 0.8);}#container .labelBkg{background-color:rgba(232, 232, 232, 0.5);}#container .cluster rect{fill:#ffffde;stroke:#aaaa33;stroke-width:1px;}#container .cluster text{fill:#333;}#container .cluster span{color:#333;}#container div.mermaidTooltip{position:absolute;text-align:center;max-width:200px;padding:2px;font-family:"trebuchet ms",verdana,arial,sans-serif;font-size:12px;background:hsl(80, 100%, 96.2745098039%);border:1px solid #aaaa33;border-radius:2px;pointer-events:none;z-index:100;}#container .flowchartTitleText{text-anchor:middle;font-size:18px;fill:#333;}#container rect.text{fill:none;stroke-width:0;}#container .icon-shape,#container .image-shape{background-color:rgba(232,232,232, 0.8);text-align:center;}#container .icon-shape p,#container .image-shape p{background-color:rgba(232,232,232, 0.8);padding:2px;}#container .icon-shape .label rect,#container .image-shape .label rect{opacity:0.5;background-color:rgba(232,232,232, 0.8);fill:rgba(232,232,232, 0.8);}#container .label-icon{display:inline-block;height:1em;overflow:visible;vertical-align:-0.125em;}#container .node .label-icon path{fill:currentColor;stroke:revert;stroke-width:revert;}#container .node .neo-node{stroke:#9370DB;}#container [data-look="neo"].node rect,#container [data-look="neo"].cluster rect,#container [data-look="neo"].node polygon{stroke:#9370DB;filter:drop-shadow(1px 2px 2px rgba(185, 185, 185, 1));}#container [data-look="neo"].node path{stroke:#9370DB;stroke-width:1px;}#container [data-look="neo"].node .outer-path{filter:drop-shadow(1px 2px 2px rgba(185, 185, 185, 1));}#container [data-look="neo"].node .neo-line path{stroke:#9370DB;filter:none;}#container [data-look="neo"].node circle{stroke:#9370DB;filter:drop-shadow(1px 2px 2px rgba(185, 185, 185, 1));}#container [data-look="neo"].node circle .state-start{fill:#000000;}#container [data-look="neo"].icon-shape .icon{fill:#9370DB;filter:drop-shadow(1px 2px 2px rgba(185, 185, 185, 1));}#container [data-look="neo"].icon-shape .icon-neo path{stroke:#9370DB;filter:drop-shadow(1px 2px 2px rgba(185, 185, 185, 1));}#container :root{--mermaid-font-family:"trebuchet ms",verdana,arial,sans-serif;}</style><g><marker id="container_flowchart-v2-pointEnd" class="marker flowchart-v2" viewBox="0 0 10 10" refX="5" refY="5" markerUnits="userSpaceOnUse" markerWidth="8" markerHeight="8" orient="auto"><path d="M 0 0 L 10 5 L 0 10 z" class="arrowMarkerPath" style="stroke-width: 1; stroke-dasharray: 1, 0;"></path></marker><marker id="container_flowchart-v2-pointStart" class="marker flowchart-v2" viewBox="0 0 10 10" refX="4.5" refY="5" markerUnits="userSpaceOnUse" markerWidth="8" markerHeight="8" orient="auto"><path d="M 0 5 L 10 10 L 10 0 z" class="arrowMarkerPath" style="stroke-width: 1; stroke-dasharray: 1, 0;"></path></marker><marker id="container_flowchart-v2-pointEnd-margin" class="marker flowchart-v2" viewBox="0 0 11.5 14" refX="11.5" refY="7" markerUnits="userSpaceOnUse" markerWidth="10.5" markerHeight="14" orient="auto"><path d="M 0 0 L 11.5 7 L 0 14 z" class="arrowMarkerPath" style="stroke-width: 0; stroke-dasharray: 1, 0;"></path></marker><marker id="container_flowchart-v2-pointStart-margin" class="marker flowchart-v2" viewBox="0 0 11.5 14" refX="1" refY="7" markerUnits="userSpaceOnUse" markerWidth="11.5" markerHeight="14" orient="auto"><polygon points="0,7 11.5,14 11.5,0" class="arrowMarkerPath" style="stroke-width: 0; stroke-dasharray: 1, 0;"></polygon></marker><marker id="container_flowchart-v2-circleEnd" class="marker flowchart-v2" viewBox="0 0 10 10" refX="11" refY="5" markerUnits="userSpaceOnUse" markerWidth="11" markerHeight="11" orient="auto"><circle cx="5" cy="5" r="5" class="arrowMarkerPath" style="stroke-width: 1; stroke-dasharray: 1, 0;"></circle></marker><marker id="container_flowchart-v2-circleStart" class="marker flowchart-v2" viewBox="0 0 10 10" refX="-1" refY="5" markerUnits="userSpaceOnUse" markerWidth="11" markerHeight="11" orient="auto"><circle cx="5" cy="5" r="5" class="arrowMarkerPath" style="stroke-width: 1; stroke-dasharray: 1, 0;"></circle></marker><marker id="container_flowchart-v2-circleEnd-margin" class="marker flowchart-v2" viewBox="0 0 10 10" refY="5" refX="12.25" markerUnits="userSpaceOnUse" markerWidth="14" markerHeight="14" orient="auto"><circle cx="5" cy="5" r="5" class="arrowMarkerPath" style="stroke-width: 0; stroke-dasharray: 1, 0;"></circle></marker><marker id="container_flowchart-v2-circleStart-margin" class="marker flowchart-v2" viewBox="0 0 10 10" refX="-2" refY="5" markerUnits="userSpaceOnUse" markerWidth="14" markerHeight="14" orient="auto"><circle cx="5" cy="5" r="5" class="arrowMarkerPath" style="stroke-width: 0; stroke-dasharray: 1, 0;"></circle></marker><marker id="container_flowchart-v2-crossEnd" class="marker cross flowchart-v2" viewBox="0 0 11 11" refX="12" refY="5.2" markerUnits="userSpaceOnUse" markerWidth="11" markerHeight="11" orient="auto"><path d="M 1,1 l 9,9 M 10,1 l -9,9" class="arrowMarkerPath" style="stroke-width: 2; stroke-dasharray: 1, 0;"></path></marker><marker id="container_flowchart-v2-crossStart" class="marker cross flowchart-v2" viewBox="0 0 11 11" refX="-1" refY="5.2" markerUnits="userSpaceOnUse" markerWidth="11" markerHeight="11" orient="auto"><path d="M 1,1 l 9,9 M 10,1 l -9,9" class="arrowMarkerPath" style="stroke-width: 2; stroke-dasharray: 1, 0;"></path></marker><marker id="container_flowchart-v2-crossEnd-margin" class="marker cross flowchart-v2" viewBox="0 0 15 15" refX="17.7" refY="7.5" markerUnits="userSpaceOnUse" markerWidth="12" markerHeight="12" orient="auto"><path d="M 1,1 L 14,14 M 1,14 L 14,1" class="arrowMarkerPath" style="stroke-width: 2.5;"></path></marker><marker id="container_flowchart-v2-crossStart-margin" class="marker cross flowchart-v2" viewBox="0 0 15 15" refX="-3.5" refY="7.5" markerUnits="userSpaceOnUse" markerWidth="12" markerHeight="12" orient="auto"><path d="M 1,1 L 14,14 M 1,14 L 14,1" class="arrowMarkerPath" style="stroke-width: 2.5; stroke-dasharray: 1, 0;"></path></marker><g class="root"><g class="clusters"></g><g class="edgePaths"><path d="M299.602,47.5L299.518,51.583C299.435,55.667,299.268,63.833,299.185,71.417C299.102,79,299.102,86,299.102,89.5L299.102,93" id="container-L_Trigger_CheckAI_0" class="edge-thickness-normal edge-pattern-solid edge-thickness-normal edge-pattern-solid flowchart-link" style=";" data-edge="true" data-et="edge" data-id="L_Trigger_CheckAI_0" data-points="W3sieCI6Mjk5LjYwMTU2MjUsInkiOjQ3LjQ5OTk5OTk5OTk5OTk5fSx7IngiOjI5OS4xMDE1NjI1LCJ5Ijo3Mn0seyJ4IjoyOTkuMTAxNTYyNSwieSI6OTd9XQ==" data-look="classic" marker-end="url(#container_flowchart-v2-pointEnd)"></path><path d="M265.823,246.487L259.114,258.2C252.405,269.913,238.988,293.339,232.279,310.552C225.57,327.766,225.57,338.766,225.57,344.266L225.57,349.766" id="container-L_CheckAI_LimitCheck_0" class="edge-thickness-normal edge-pattern-solid edge-thickness-normal edge-pattern-solid flowchart-link" style=";" data-edge="true" data-et="edge" data-id="L_CheckAI_LimitCheck_0" data-points="W3sieCI6MjY1LjgyMjU5MDUwMzQ4MjMsInkiOjI0Ni40ODY2NTMwMDM0ODIzfSx7IngiOjIyNS41NzAzMTI1LCJ5IjozMTYuNzY1NjI1fSx7IngiOjIyNS41NzAzMTI1LCJ5IjozNTMuNzY1NjI1fV0=" data-look="classic" marker-end="url(#container_flowchart-v2-pointEnd)"></path><path d="M184.1,536.42L176.416,549.498C168.733,562.577,153.367,588.734,145.683,607.312C138,625.891,138,636.891,138,642.391L138,647.891" id="container-L_LimitCheck_StartThread_0" class="edge-thickness-normal edge-pattern-solid edge-thickness-normal edge-pattern-solid flowchart-link" style=";" data-edge="true" data-et="edge" data-id="L_LimitCheck_StartThread_0" data-points="W3sieCI6MTg0LjA5OTUyODk2NDcyMzE2LCJ5Ijo1MzYuNDE5ODQxNDY0NzIzMn0seyJ4IjoxMzgsInkiOjYxNC44OTA2MjV9LHsieCI6MTM4LCJ5Ijo2NTEuODkwNjI1fV0=" data-look="classic" marker-end="url(#container_flowchart-v2-pointEnd)"></path><path d="M267.322,536.139L275.116,549.264C282.91,562.39,298.498,588.64,306.292,614.432C314.086,640.224,314.086,665.557,314.086,690.891C314.086,716.224,314.086,741.557,314.086,766.891C314.086,792.224,314.086,817.557,314.086,840.891C314.086,864.224,314.086,885.557,314.086,919.027C314.086,952.497,314.086,998.104,314.086,1045.711C314.086,1093.318,314.086,1142.924,319.269,1173.402C324.453,1203.88,334.819,1215.229,340.003,1220.903L345.186,1226.578" id="container-L_LimitCheck_Fallback_0" class="edge-thickness-normal edge-pattern-solid edge-thickness-normal edge-pattern-solid flowchart-link" style=";" data-edge="true" data-et="edge" data-id="L_LimitCheck_Fallback_0" data-points="W3sieCI6MjY3LjMyMTk3NzI0ODQzODAzLCJ5Ijo1MzYuMTM4OTYwMjUxNTYyfSx7IngiOjMxNC4wODU5Mzc1LCJ5Ijo2MTQuODkwNjI1fSx7IngiOjMxNC4wODU5Mzc1LCJ5Ijo2OTAuODkwNjI1fSx7IngiOjMxNC4wODU5Mzc1LCJ5Ijo3NjYuODkwNjI1fSx7IngiOjMxNC4wODU5Mzc1LCJ5Ijo4NDIuODkwNjI1fSx7IngiOjMxNC4wODU5Mzc1LCJ5Ijo5MDYuODkwNjI1fSx7IngiOjMxNC4wODU5Mzc1LCJ5IjoxMDQzLjcxMDkzNzV9LHsieCI6MzE0LjA4NTkzNzUsInkiOjExOTIuNTMxMjV9LHsieCI6MzQ3Ljg4MzY2Njk5MjE4NzUsInkiOjEyMjkuNTMxMjV9XQ==" data-look="classic" marker-end="url(#container_flowchart-v2-pointEnd)"></path><path d="M339.909,238.959L350.372,251.926C360.835,264.894,381.761,290.83,392.224,328.642C402.688,366.453,402.688,416.141,402.688,465.828C402.688,515.516,402.688,565.203,402.688,602.714C402.688,640.224,402.688,665.557,402.688,690.891C402.688,716.224,402.688,741.557,402.688,766.891C402.688,792.224,402.688,817.557,402.688,840.891C402.688,864.224,402.688,885.557,402.688,919.027C402.688,952.497,402.688,998.104,402.688,1045.711C402.688,1093.318,402.688,1142.924,400.067,1173.291C397.447,1203.658,392.207,1214.785,389.587,1220.349L386.967,1225.912" id="container-L_CheckAI_Fallback_0" class="edge-thickness-normal edge-pattern-solid edge-thickness-normal edge-pattern-solid flowchart-link" style=";" data-edge="true" data-et="edge" data-id="L_CheckAI_Fallback_0" data-points="W3sieCI6MzM5LjkwODY3MjUyNzUzMjY0LCJ5IjoyMzguOTU4NTE0OTcyNDY3MzN9LHsieCI6NDAyLjY4NzUsInkiOjMxNi43NjU2MjV9LHsieCI6NDAyLjY4NzUsInkiOjQ2NS44MjgxMjV9LHsieCI6NDAyLjY4NzUsInkiOjYxNC44OTA2MjV9LHsieCI6NDAyLjY4NzUsInkiOjY5MC44OTA2MjV9LHsieCI6NDAyLjY4NzUsInkiOjc2Ni44OTA2MjV9LHsieCI6NDAyLjY4NzUsInkiOjg0Mi44OTA2MjV9LHsieCI6NDAyLjY4NzUsInkiOjkwNi44OTA2MjV9LHsieCI6NDAyLjY4NzUsInkiOjEwNDMuNzEwOTM3NX0seyJ4Ijo0MDIuNjg3NSwieSI6MTE5Mi41MzEyNX0seyJ4IjozODUuMjYyNDUxMTcxODc1LCJ5IjoxMjI5LjUzMTI1fV0=" data-look="classic" marker-end="url(#container_flowchart-v2-pointEnd)"></path><path d="M138,729.891L138,736.057C138,742.224,138,754.557,138,766.224C138,777.891,138,788.891,138,794.391L138,799.891" id="container-L_StartThread_HTTPSReq_0" class="edge-thickness-normal edge-pattern-solid edge-thickness-normal edge-pattern-solid flowchart-link" style=";" data-edge="true" data-et="edge" data-id="L_StartThread_HTTPSReq_0" data-points="W3sieCI6MTM4LCJ5Ijo3MjkuODkwNjI1fSx7IngiOjEzOCwieSI6NzY2Ljg5MDYyNX0seyJ4IjoxMzgsInkiOjgwMy44OTA2MjV9XQ==" data-look="classic" marker-end="url(#container_flowchart-v2-pointEnd)"></path><path d="M138,881.891L138,886.057C138,890.224,138,898.557,138,906.224C138,913.891,138,920.891,138,924.391L138,927.891" id="container-L_HTTPSReq_RespCheck_0" class="edge-thickness-normal edge-pattern-solid edge-thickness-normal edge-pattern-solid flowchart-link" style=";" data-edge="true" data-et="edge" data-id="L_HTTPSReq_RespCheck_0" data-points="W3sieCI6MTM4LCJ5Ijo4ODEuODkwNjI1fSx7IngiOjEzOCwieSI6OTA2Ljg5MDYyNX0seyJ4IjoxMzgsInkiOjkzMS44OTA2MjV9XQ==" data-look="classic" marker-end="url(#container_flowchart-v2-pointEnd)"></path><path d="M127.718,1145.249L126.92,1153.129C126.122,1161.01,124.526,1176.77,123.728,1195.318C122.93,1213.865,122.93,1235.198,122.93,1254.531C122.93,1273.865,122.93,1291.198,122.93,1310.531C122.93,1329.865,122.93,1351.198,122.93,1372.531C122.93,1393.865,122.93,1415.198,122.93,1434.531C122.93,1453.865,122.93,1471.198,122.93,1488.531C122.93,1505.865,122.93,1523.198,129.046,1535.679C135.163,1548.159,147.396,1555.787,153.513,1559.601L159.629,1563.415" id="container-L_RespCheck_SetNewResp_0" class="edge-thickness-normal edge-pattern-solid edge-thickness-normal edge-pattern-solid flowchart-link" style=";" data-edge="true" data-et="edge" data-id="L_RespCheck_SetNewResp_0" data-points="W3sieCI6MTI3LjcxNzczMzY4MjMxMDA0LCJ5IjoxMTQ1LjI0ODk4MzY4MjMxfSx7IngiOjEyMi45Mjk2ODc1LCJ5IjoxMTkyLjUzMTI1fSx7IngiOjEyMi45Mjk2ODc1LCJ5IjoxMjU2LjUzMTI1fSx7IngiOjEyMi45Mjk2ODc1LCJ5IjoxMzA4LjUzMTI1fSx7IngiOjEyMi45Mjk2ODc1LCJ5IjoxMzcyLjUzMTI1fSx7IngiOjEyMi45Mjk2ODc1LCJ5IjoxNDM2LjUzMTI1fSx7IngiOjEyMi45Mjk2ODc1LCJ5IjoxNDg4LjUzMTI1fSx7IngiOjEyMi45Mjk2ODc1LCJ5IjoxNTQwLjUzMTI1fSx7IngiOjE2My4wMjM2ODE2NDA2MjUsInkiOjE1NjUuNTMxMjV9XQ==" data-look="classic" marker-end="url(#container_flowchart-v2-pointEnd)"></path><path d="M174.95,1118.581L181.032,1130.906C187.115,1143.231,199.28,1167.881,220.266,1186.127C241.252,1204.372,271.058,1216.213,285.962,1222.134L300.865,1228.054" id="container-L_RespCheck_Fallback_0" class="edge-thickness-normal edge-pattern-solid edge-thickness-normal edge-pattern-solid flowchart-link" style=";" data-edge="true" data-et="edge" data-id="L_RespCheck_Fallback_0" data-points="W3sieCI6MTc0Ljk0OTgzMzMxNTAyNjM1LCJ5IjoxMTE4LjU4MTQxNjY4NDk3MzZ9LHsieCI6MjExLjQ0NTMxMjUsInkiOjExOTIuNTMxMjV9LHsieCI6MzA0LjU4MjE1MzMyMDMxMjUsInkiOjEyMjkuNTMxMjV9XQ==" data-look="classic" marker-end="url(#container_flowchart-v2-pointEnd)"></path><path d="M372.547,1283.531L372.547,1287.698C372.547,1291.865,372.547,1300.198,372.547,1307.865C372.547,1315.531,372.547,1322.531,372.547,1326.031L372.547,1329.531" id="container-L_Fallback_SelectLocal_0" class="edge-thickness-normal edge-pattern-solid edge-thickness-normal edge-pattern-solid flowchart-link" style=";" data-edge="true" data-et="edge" data-id="L_Fallback_SelectLocal_0" data-points="W3sieCI6MzcyLjU0Njg3NSwieSI6MTI4My41MzEyNX0seyJ4IjozNzIuNTQ2ODc1LCJ5IjoxMzA4LjUzMTI1fSx7IngiOjM3Mi41NDY4NzUsInkiOjEzMzMuNTMxMjV9XQ==" data-look="classic" marker-end="url(#container_flowchart-v2-pointEnd)"></path><path d="M372.547,1411.531L372.547,1415.698C372.547,1419.865,372.547,1428.198,372.547,1435.865C372.547,1443.531,372.547,1450.531,372.547,1454.031L372.547,1457.531" id="container-L_SelectLocal_Personalize_0" class="edge-thickness-normal edge-pattern-solid edge-thickness-normal edge-pattern-solid flowchart-link" style=";" data-edge="true" data-et="edge" data-id="L_SelectLocal_Personalize_0" data-points="W3sieCI6MzcyLjU0Njg3NSwieSI6MTQxMS41MzEyNX0seyJ4IjozNzIuNTQ2ODc1LCJ5IjoxNDM2LjUzMTI1fSx7IngiOjM3Mi41NDY4NzUsInkiOjE0NjEuNTMxMjV9XQ==" data-look="classic" marker-end="url(#container_flowchart-v2-pointEnd)"></path><path d="M372.547,1515.531L372.547,1519.698C372.547,1523.865,372.547,1532.198,363.589,1540.265C354.632,1548.332,336.717,1556.133,327.759,1560.034L318.802,1563.934" id="container-L_Personalize_SetNewResp_0" class="edge-thickness-normal edge-pattern-solid edge-thickness-normal edge-pattern-solid flowchart-link" style=";" data-edge="true" data-et="edge" data-id="L_Personalize_SetNewResp_0" data-points="W3sieCI6MzcyLjU0Njg3NSwieSI6MTUxNS41MzEyNX0seyJ4IjozNzIuNTQ2ODc1LCJ5IjoxNTQwLjUzMTI1fSx7IngiOjMxNS4xMzQxNTUyNzM0Mzc1LCJ5IjoxNTY1LjUzMTI1fV0=" data-look="classic" marker-end="url(#container_flowchart-v2-pointEnd)"></path></g><g class="edgeLabels"><g class="edgeLabel"><g class="label" data-id="L_Trigger_CheckAI_0" transform="translate(0, 0)"><foreignObject width="0" height="0"><div xmlns="http://www.w3.org/1999/xhtml" class="labelBkg" style="display: table-cell; white-space: nowrap; line-height: 1.5; max-width: 200px; text-align: center;"><span class="edgeLabel"></span></div></foreignObject></g></g><g class="edgeLabel" transform="translate(225.5703125, 316.765625)"><g class="label" data-id="L_CheckAI_LimitCheck_0" transform="translate(-12.03125, -12)"><foreignObject width="24.0625" height="24"><div xmlns="http://www.w3.org/1999/xhtml" class="labelBkg" style="display: table-cell; white-space: nowrap; line-height: 1.5; max-width: 200px; text-align: center;"><span class="edgeLabel"><p>Yes</p></span></div></foreignObject></g></g><g class="edgeLabel" transform="translate(138, 614.890625)"><g class="label" data-id="L_LimitCheck_StartThread_0" transform="translate(-12.03125, -12)"><foreignObject width="24.0625" height="24"><div xmlns="http://www.w3.org/1999/xhtml" class="labelBkg" style="display: table-cell; white-space: nowrap; line-height: 1.5; max-width: 200px; text-align: center;"><span class="edgeLabel"><p>Yes</p></span></div></foreignObject></g></g><g class="edgeLabel" transform="translate(314.0859375, 842.890625)"><g class="label" data-id="L_LimitCheck_Fallback_0" transform="translate(-10.140625, -12)"><foreignObject width="20.28125" height="24"><div xmlns="http://www.w3.org/1999/xhtml" class="labelBkg" style="display: table-cell; white-space: nowrap; line-height: 1.5; max-width: 200px; text-align: center;"><span class="edgeLabel"><p>No</p></span></div></foreignObject></g></g><g class="edgeLabel" transform="translate(402.6875, 766.890625)"><g class="label" data-id="L_CheckAI_Fallback_0" transform="translate(-10.140625, -12)"><foreignObject width="20.28125" height="24"><div xmlns="http://www.w3.org/1999/xhtml" class="labelBkg" style="display: table-cell; white-space: nowrap; line-height: 1.5; max-width: 200px; text-align: center;"><span class="edgeLabel"><p>No</p></span></div></foreignObject></g></g><g class="edgeLabel"><g class="label" data-id="L_StartThread_HTTPSReq_0" transform="translate(0, 0)"><foreignObject width="0" height="0"><div xmlns="http://www.w3.org/1999/xhtml" class="labelBkg" style="display: table-cell; white-space: nowrap; line-height: 1.5; max-width: 200px; text-align: center;"><span class="edgeLabel"></span></div></foreignObject></g></g><g class="edgeLabel"><g class="label" data-id="L_HTTPSReq_RespCheck_0" transform="translate(0, 0)"><foreignObject width="0" height="0"><div xmlns="http://www.w3.org/1999/xhtml" class="labelBkg" style="display: table-cell; white-space: nowrap; line-height: 1.5; max-width: 200px; text-align: center;"><span class="edgeLabel"></span></div></foreignObject></g></g><g class="edgeLabel" transform="translate(122.9296875, 1372.53125)"><g class="label" data-id="L_RespCheck_SetNewResp_0" transform="translate(-12.03125, -12)"><foreignObject width="24.0625" height="24"><div xmlns="http://www.w3.org/1999/xhtml" class="labelBkg" style="display: table-cell; white-space: nowrap; line-height: 1.5; max-width: 200px; text-align: center;"><span class="edgeLabel"><p>Yes</p></span></div></foreignObject></g></g><g class="edgeLabel" transform="translate(219.69422, 1195.80825)"><g class="label" data-id="L_RespCheck_Fallback_0" transform="translate(-10.140625, -12)"><foreignObject width="20.28125" height="24"><div xmlns="http://www.w3.org/1999/xhtml" class="labelBkg" style="display: table-cell; white-space: nowrap; line-height: 1.5; max-width: 200px; text-align: center;"><span class="edgeLabel"><p>No</p></span></div></foreignObject></g></g><g class="edgeLabel"><g class="label" data-id="L_Fallback_SelectLocal_0" transform="translate(0, 0)"><foreignObject width="0" height="0"><div xmlns="http://www.w3.org/1999/xhtml" class="labelBkg" style="display: table-cell; white-space: nowrap; line-height: 1.5; max-width: 200px; text-align: center;"><span class="edgeLabel"></span></div></foreignObject></g></g><g class="edgeLabel"><g class="label" data-id="L_SelectLocal_Personalize_0" transform="translate(0, 0)"><foreignObject width="0" height="0"><div xmlns="http://www.w3.org/1999/xhtml" class="labelBkg" style="display: table-cell; white-space: nowrap; line-height: 1.5; max-width: 200px; text-align: center;"><span class="edgeLabel"></span></div></foreignObject></g></g><g class="edgeLabel"><g class="label" data-id="L_Personalize_SetNewResp_0" transform="translate(0, 0)"><foreignObject width="0" height="0"><div xmlns="http://www.w3.org/1999/xhtml" class="labelBkg" style="display: table-cell; white-space: nowrap; line-height: 1.5; max-width: 200px; text-align: center;"><span class="edgeLabel"></span></div></foreignObject></g></g></g><g class="nodes"><g class="node default" id="container-flowchart-Trigger-0" data-look="classic" transform="translate(299.1015625, 27.5)"><g class="basic label-container outer-path"><path d="M-77.4296875 -19.5 C-36.35989293400639 -19.5, 4.709901631987222 -19.5, 77.4296875 -19.5 C77.4296875 -19.5, 77.4296875 -19.5, 77.4296875 -19.5 C77.91906159252615 -19.484306725361574, 78.4084356850523 -19.468613450723144, 78.6790567896239 -19.45993515863156 C79.12625152177856 -19.416794820650953, 79.57344625393321 -19.373654482670343, 79.92329215284786 -19.3399052695533 C80.39107506681385 -19.264277755733954, 80.85885798077986 -19.188650241914612, 81.15728075967675 -19.140403561325776 C81.56402065734315 -19.0475678339093, 81.97076055500956 -18.954732106492827, 82.37595188623538 -18.862249829261074 C82.71103227646508 -18.762799728313762, 83.04611266669477 -18.663349627366454, 83.5742977514606 -18.50658706670804 C83.89779567282454 -18.387536841264104, 84.22129359418848 -18.26848661582017, 84.7473940951478 -18.074876768247425 C85.07059486540619 -17.93180537466424, 85.3937956356646 -17.788733981081055, 85.89042041279238 -17.568892924097174 C86.18880451649282 -17.41322612832079, 86.48718862019328 -17.25755933254441, 86.99867976407678 -16.990714730406097 C87.3560753900222 -16.774059401668158, 87.71347101596763 -16.557404072930215, 88.0676180736057 -16.342718045390892 C88.31903406521783 -16.167341133265133, 88.57045005682997 -15.991964221139371, 89.09284284457871 -15.627565626425154 C89.37643488260603 -15.401408522799438, 89.66002692063336 -15.175251419173723, 90.07014120850187 -14.848196188198123 C90.37390267963386 -14.57232805720416, 90.67766415076585 -14.296459926210197, 90.99549723676799 -14.007812326905688 C91.3144057288037 -13.678513126004678, 91.63331422083942 -13.349213925103665, 91.86510844296865 -13.10986736009568 C92.13780128988036 -12.789546825450623, 92.41049413679208 -12.469226290805567, 92.67540140812658 -12.158051136245305 C92.92010815003023 -11.830166395337212, 93.16481489193389 -11.502281654429119, 93.42304646464063 -11.156274872382312 C93.56841201686595 -10.932954348047897, 93.71377756909125 -10.70963382371348, 94.10497137860425 -10.108655082055241 C94.25240806369453 -9.846866318094172, 94.39984474878482 -9.585077554133104, 94.7183739742735 -9.019496659696287 C94.8588934762134 -8.727704907282419, 94.99941297815329 -8.43591315486855, 95.26073364880834 -7.893275190886684 C95.40301771494667 -7.541830796649718, 95.54530178108502 -7.190386402412751, 95.72982172997033 -6.734618561215508 C95.85867648833239 -6.346528559246666, 95.98753124669446 -5.958438557277824, 96.12371063421489 -5.548287939305138 C96.19530328737841 -5.275274124340462, 96.26689594054193 -5.002260309375786, 96.44078178754556 -4.339158212148133 C96.51665323483161 -3.9495743657703497, 96.59252468211766 -3.5599905193925663, 96.67973227658177 -3.1121979531509023 C96.73495395617077 -2.6839095110127236, 96.79017563575977 -2.255621068874545, 96.83958020250937 -1.872449005199798 C96.8662553071048 -1.4569627193691561, 96.89293041170022 -1.041476433538514, 96.91966871591342 -0.6250057626472757 C96.91966871591342 -0.3278240743123267, 96.91966871591342 -0.030642385977377673, 96.91966871591342 0.625005762647271 C96.88910603508742 1.1010441862640523, 96.85854335426143 1.5770826098808335, 96.83958020250937 1.8724490051997846 C96.80083209782858 2.172971653425218, 96.7620839931478 2.4734943016506508, 96.67973227658177 3.1121979531508885 C96.62935437584038 3.3708778260848846, 96.57897647509898 3.629557699018881, 96.44078178754556 4.339158212148129 C96.34865043610732 4.69049498516242, 96.2565190846691 5.041831758176711, 96.12371063421489 5.548287939305125 C96.03100923216147 5.827489792327425, 95.93830783010803 6.106691645349725, 95.72982172997033 6.734618561215495 C95.63229840458301 6.975503060407387, 95.5347750791957 7.216387559599279, 95.26073364880834 7.893275190886679 C95.09736260992416 8.232518648709924, 94.93399157104 8.571762106533168, 94.7183739742735 9.019496659696284 C94.48152106063169 9.440052991825555, 94.24466814698988 9.860609323954824, 94.10497137860425 10.108655082055236 C93.8689539494425 10.471241232801392, 93.63293652028075 10.833827383547549, 93.42304646464065 11.156274872382301 C93.19772830396134 11.458180680785853, 92.97241014328205 11.760086489189403, 92.67540140812659 12.158051136245302 C92.37314949166185 12.513093435946049, 92.07089757519711 12.868135735646796, 91.86510844296866 13.10986736009567 C91.6294920589606 13.353160621048891, 91.39387567495251 13.59645388200211, 90.99549723676799 14.007812326905684 C90.7076905938561 14.269190705051784, 90.4198839509442 14.530569083197882, 90.0701412085019 14.848196188198111 C89.83780980713493 15.033474298190018, 89.60547840576797 15.218752408181926, 89.09284284457871 15.627565626425152 C88.74204982516854 15.872263651180624, 88.39125680575837 16.116961675936096, 88.0676180736057 16.34271804539089 C87.77582479182331 16.519604847575035, 87.48403151004091 16.696491649759185, 86.99867976407678 16.990714730406093 C86.71291354651773 17.13979878306466, 86.42714732895865 17.288882835723225, 85.89042041279238 17.56889292409717 C85.63400733723115 17.682399386424485, 85.37759426166994 17.795905848751804, 84.7473940951478 18.07487676824742 C84.49249682016162 18.16868132168692, 84.23759954517544 18.262485875126412, 83.57429775146062 18.506587066708033 C83.30247234842135 18.58726341948943, 83.03064694538207 18.66793977227083, 82.37595188623541 18.86224982926107 C82.08650910697656 18.92831325483625, 81.79706632771772 18.99437668041143, 81.15728075967677 19.140403561325773 C80.80720716533095 19.197000745198334, 80.45713357098514 19.253597929070892, 79.92329215284788 19.3399052695533 C79.49443532843028 19.381276571629073, 79.0655785040127 19.422647873704843, 78.6790567896239 19.45993515863156 C78.30442461149258 19.47194888340693, 77.92979243336127 19.483962608182306, 77.4296875 19.5 C77.4296875 19.5, 77.4296875 19.5, 77.4296875 19.5 C34.68940088765375 19.5, -8.050885724692506 19.5, -77.4296875 19.5 C-77.78667866739235 19.48855198810288, -78.14366983478469 19.477103976205765, -78.6790567896239 19.45993515863156 C-78.98243528361824 19.430668600181946, -79.28581377761259 19.401402041732332, -79.92329215284786 19.3399052695533 C-80.36640411401868 19.268266364055783, -80.80951607518949 19.196627458558265, -81.15728075967675 19.140403561325773 C-81.48278305545305 19.06610978641582, -81.80828535122936 18.991816011505865, -82.37595188623538 18.862249829261074 C-82.70659185492646 18.764117622118178, -83.03723182361752 18.66598541497528, -83.57429775146059 18.506587066708043 C-83.97792054217827 18.358050148675762, -84.38154333289593 18.209513230643484, -84.7473940951478 18.074876768247425 C-85.12919472203616 17.90586495643714, -85.51099534892452 17.736853144626853, -85.89042041279238 17.568892924097174 C-86.24775346668066 17.382472498766404, -86.60508652056893 17.196052073435634, -86.99867976407678 16.990714730406097 C-87.38544030909023 16.756258215161704, -87.77220085410366 16.521801699917308, -88.06761807360569 16.3427180453909 C-88.3769222958603 16.126960809510066, -88.6862265181149 15.911203573629232, -89.09284284457871 15.627565626425156 C-89.3219463137374 15.44486170647046, -89.55104978289609 15.262157786515765, -90.07014120850187 14.848196188198125 C-90.40779175779493 14.541550893074144, -90.745442307088 14.234905597950164, -90.99549723676797 14.007812326905697 C-91.19012638761866 13.806841749301906, -91.38475553846934 13.605871171698116, -91.86510844296865 13.109867360095677 C-92.14475498084607 12.781378624366074, -92.4244015187235 12.452889888636472, -92.67540140812658 12.158051136245307 C-92.89555663807018 11.863063184674933, -93.11571186801378 11.56807523310456, -93.42304646464063 11.156274872382316 C-93.65660985716609 10.797458780910613, -93.89017324969156 10.438642689438911, -94.10497137860425 10.108655082055249 C-94.26587331112827 9.822957407771412, -94.4267752436523 9.537259733487575, -94.7183739742735 9.019496659696289 C-94.8419412137213 8.762906643067579, -94.96550845316908 8.506316626438869, -95.26073364880834 7.893275190886686 C-95.42539862074202 7.486549526629841, -95.5900635926757 7.079823862372997, -95.72982172997033 6.73461856121551 C-95.85973955373422 6.343326775632835, -95.9896573774981 5.9520349900501595, -96.12371063421489 5.5482879393051325 C-96.22342446568402 5.168035883665387, -96.32313829715315 4.787783828025642, -96.44078178754556 4.339158212148136 C-96.532485972335 3.868276604940686, -96.62419015712443 3.397394997733236, -96.67973227658177 3.112197953150904 C-96.7222808602993 2.7821995400059816, -96.76482944401683 2.4522011268610595, -96.83958020250937 1.872449005199809 C-96.87010204849065 1.3970466172506346, -96.90062389447193 0.9216442293014601, -96.91966871591342 0.6250057626472781 C-96.91966871591342 0.3315258981932874, -96.91966871591342 0.038046033739296714, -96.91966871591342 -0.6250057626472687 C-96.89042264373066 -1.080536943898296, -96.8611765715479 -1.536068125149323, -96.83958020250937 -1.8724490051997822 C-96.77899812977613 -2.3423115980353457, -96.7184160570429 -2.812174190870909, -96.67973227658177 -3.112197953150895 C-96.59496523331077 -3.5474588048265785, -96.51019819003976 -3.9827196565022622, -96.44078178754556 -4.339158212148126 C-96.33374686167866 -4.747328773708918, -96.22671193581176 -5.1554993352697105, -96.12371063421489 -5.548287939305123 C-95.99026062442783 -5.950218106412164, -95.85681061464076 -6.352148273519205, -95.72982172997033 -6.734618561215485 C-95.55185875070072 -7.174190560691546, -95.37389577143112 -7.613762560167607, -95.26073364880834 -7.893275190886676 C-95.12602146837747 -8.173007915930276, -94.99130928794662 -8.452740640973877, -94.7183739742735 -9.019496659696282 C-94.50311805934173 -9.401705333682617, -94.28786214440996 -9.783914007668951, -94.10497137860425 -10.108655082055243 C-93.89258137538036 -10.4349431617086, -93.68019137215649 -10.761231241361958, -93.42304646464063 -11.156274872382308 C-93.12486832688543 -11.555806412387096, -92.82669018913025 -11.955337952391885, -92.67540140812659 -12.158051136245302 C-92.36729582453557 -12.519969486435668, -92.05919024094455 -12.881887836626037, -91.86510844296866 -13.10986736009567 C-91.55038466193609 -13.434845503314758, -91.23566088090354 -13.759823646533844, -90.99549723676799 -14.007812326905677 C-90.6835908062394 -14.291077494519831, -90.3716843757108 -14.574342662133983, -90.0701412085019 -14.848196188198107 C-89.6858984456968 -15.15461956640583, -89.30165568289169 -15.461042944613549, -89.09284284457871 -15.627565626425149 C-88.8439244592266 -15.801200316543552, -88.59500607387449 -15.974835006661955, -88.06761807360571 -16.342718045390885 C-87.7660912899346 -16.525505353620378, -87.46456450626349 -16.708292661849875, -86.99867976407678 -16.99071473040609 C-86.56438377971564 -17.217286667267444, -86.1300877953545 -17.443858604128803, -85.8904204127924 -17.56889292409717 C-85.57435564908324 -17.708805419263115, -85.2582908853741 -17.84871791442906, -84.74739409514781 -18.07487676824742 C-84.3475518738952 -18.222022401769358, -83.94770965264259 -18.369168035291295, -83.57429775146062 -18.506587066708033 C-83.30161190679443 -18.587518794047746, -83.02892606212826 -18.668450521387463, -82.37595188623541 -18.862249829261067 C-82.11620557822549 -18.921535229061266, -81.85645927021558 -18.980820628861462, -81.15728075967677 -19.140403561325773 C-80.7454888544946 -19.20697888306171, -80.33369694931241 -19.27355420479764, -79.92329215284788 -19.3399052695533 C-79.6630707981657 -19.36500851067752, -79.40284944348355 -19.390111751801744, -78.6790567896239 -19.45993515863156 C-78.23252405396762 -19.474254594340813, -77.78599131831136 -19.488574030050064, -77.4296875 -19.5 C-77.4296875 -19.5, -77.4296875 -19.5, -77.4296875 -19.5" stroke="none" stroke-width="0" fill="#ECECFF" style=""></path><path d="M-77.4296875 -19.5 C-19.15373800219978 -19.5, 39.12221149560044 -19.5, 77.4296875 -19.5 M-77.4296875 -19.5 C-20.634700736062584 -19.5, 36.16028602787483 -19.5, 77.4296875 -19.5 M77.4296875 -19.5 C77.4296875 -19.5, 77.4296875 -19.5, 77.4296875 -19.5 M77.4296875 -19.5 C77.4296875 -19.5, 77.4296875 -19.5, 77.4296875 -19.5 M77.4296875 -19.5 C77.67959258030545 -19.491986030485336, 77.92949766061089 -19.483972060970668, 78.6790567896239 -19.45993515863156 M77.4296875 -19.5 C77.74113836726735 -19.490012376889073, 78.05258923453472 -19.480024753778146, 78.6790567896239 -19.45993515863156 M78.6790567896239 -19.45993515863156 C78.98860671903323 -19.4300732492297, 79.29815664844256 -19.400211339827838, 79.92329215284786 -19.3399052695533 M78.6790567896239 -19.45993515863156 C79.12232647807535 -19.417173464896443, 79.5655961665268 -19.37441177116133, 79.92329215284786 -19.3399052695533 M79.92329215284786 -19.3399052695533 C80.37481876650286 -19.266905948298746, 80.82634538015785 -19.193906627044193, 81.15728075967675 -19.140403561325776 M79.92329215284786 -19.3399052695533 C80.176797311297 -19.29892052149711, 80.43030246974611 -19.25793577344092, 81.15728075967675 -19.140403561325776 M81.15728075967675 -19.140403561325776 C81.46628367840854 -19.069875661557735, 81.77528659714034 -18.999347761789693, 82.37595188623538 -18.862249829261074 M81.15728075967675 -19.140403561325776 C81.41461492982037 -19.08166871625289, 81.671949099964 -19.022933871180005, 82.37595188623538 -18.862249829261074 M82.37595188623538 -18.862249829261074 C82.83092390625505 -18.727216521916105, 83.28589592627473 -18.592183214571133, 83.5742977514606 -18.50658706670804 M82.37595188623538 -18.862249829261074 C82.77262955001544 -18.744517980854706, 83.16930721379548 -18.626786132448334, 83.5742977514606 -18.50658706670804 M83.5742977514606 -18.50658706670804 C83.90599868791432 -18.384518055883227, 84.23769962436803 -18.262449045058418, 84.7473940951478 -18.074876768247425 M83.5742977514606 -18.50658706670804 C83.97558819293586 -18.35890847475697, 84.37687863441111 -18.211229882805895, 84.7473940951478 -18.074876768247425 M84.7473940951478 -18.074876768247425 C85.04571590629125 -17.942818551856323, 85.3440377174347 -17.810760335465226, 85.89042041279238 -17.568892924097174 M84.7473940951478 -18.074876768247425 C85.07358936349148 -17.93047979919051, 85.39978463183517 -17.7860828301336, 85.89042041279238 -17.568892924097174 M85.89042041279238 -17.568892924097174 C86.29198710889128 -17.35939583595812, 86.69355380499019 -17.149898747819073, 86.99867976407678 -16.990714730406097 M85.89042041279238 -17.568892924097174 C86.16806346730947 -17.424046720394472, 86.44570652182655 -17.279200516691773, 86.99867976407678 -16.990714730406097 M86.99867976407678 -16.990714730406097 C87.38300042971396 -16.75773728437792, 87.76732109535114 -16.52475983834974, 88.0676180736057 -16.342718045390892 M86.99867976407678 -16.990714730406097 C87.38473042214366 -16.756688552800473, 87.77078108021053 -16.522662375194848, 88.0676180736057 -16.342718045390892 M88.0676180736057 -16.342718045390892 C88.31037862380741 -16.17337879450502, 88.55313917400913 -16.004039543619147, 89.09284284457871 -15.627565626425154 M88.0676180736057 -16.342718045390892 C88.40598810178193 -16.10668576153759, 88.74435812995817 -15.870653477684286, 89.09284284457871 -15.627565626425154 M89.09284284457871 -15.627565626425154 C89.40998436390221 -15.37465370425493, 89.72712588322571 -15.121741782084706, 90.07014120850187 -14.848196188198123 M89.09284284457871 -15.627565626425154 C89.37094784490735 -15.40578428934793, 89.649052845236 -15.184002952270705, 90.07014120850187 -14.848196188198123 M90.07014120850187 -14.848196188198123 C90.30488851127107 -14.635004898896403, 90.5396358140403 -14.421813609594683, 90.99549723676799 -14.007812326905688 M90.07014120850187 -14.848196188198123 C90.32645535478208 -14.615418462247112, 90.58276950106232 -14.3826407362961, 90.99549723676799 -14.007812326905688 M90.99549723676799 -14.007812326905688 C91.22776414528404 -13.76797767439503, 91.4600310538001 -13.528143021884372, 91.86510844296865 -13.10986736009568 M90.99549723676799 -14.007812326905688 C91.2356154319976 -13.759870576260653, 91.47573362722721 -13.511928825615618, 91.86510844296865 -13.10986736009568 M91.86510844296865 -13.10986736009568 C92.1297583249838 -12.798994549675802, 92.39440820699893 -12.488121739255925, 92.67540140812658 -12.158051136245305 M91.86510844296865 -13.10986736009568 C92.04430311230729 -12.899375105024973, 92.22349778164593 -12.688882849954265, 92.67540140812658 -12.158051136245305 M92.67540140812658 -12.158051136245305 C92.87933990573767 -11.884792128625778, 93.08327840334877 -11.611533121006252, 93.42304646464063 -11.156274872382312 M92.67540140812658 -12.158051136245305 C92.97112419774223 -11.761809539060696, 93.26684698735788 -11.365567941876087, 93.42304646464063 -11.156274872382312 M93.42304646464063 -11.156274872382312 C93.67297959608564 -10.772310466039794, 93.92291272753066 -10.388346059697277, 94.10497137860425 -10.108655082055241 M93.42304646464063 -11.156274872382312 C93.69571872377705 -10.737377059595051, 93.96839098291346 -10.318479246807792, 94.10497137860425 -10.108655082055241 M94.10497137860425 -10.108655082055241 C94.26180751671517 -9.830176637458207, 94.41864365482608 -9.551698192861172, 94.7183739742735 -9.019496659696287 M94.10497137860425 -10.108655082055241 C94.32803258532424 -9.712587322127424, 94.55109379204423 -9.316519562199609, 94.7183739742735 -9.019496659696287 M94.7183739742735 -9.019496659696287 C94.85756671516236 -8.730459954993012, 94.99675945605122 -8.44142325028974, 95.26073364880834 -7.893275190886684 M94.7183739742735 -9.019496659696287 C94.84017979135339 -8.766564274302935, 94.96198560843327 -8.513631888909583, 95.26073364880834 -7.893275190886684 M95.26073364880834 -7.893275190886684 C95.3823140373889 -7.592969280495829, 95.50389442596943 -7.292663370104974, 95.72982172997033 -6.734618561215508 M95.26073364880834 -7.893275190886684 C95.41954336559016 -7.501012120058597, 95.57835308237198 -7.108749049230509, 95.72982172997033 -6.734618561215508 M95.72982172997033 -6.734618561215508 C95.81699130332066 -6.472077694869695, 95.904160876671 -6.2095368285238814, 96.12371063421489 -5.548287939305138 M95.72982172997033 -6.734618561215508 C95.85841142767094 -6.347326879727269, 95.98700112537155 -5.96003519823903, 96.12371063421489 -5.548287939305138 M96.12371063421489 -5.548287939305138 C96.20452150738214 -5.240121056264414, 96.28533238054939 -4.931954173223689, 96.44078178754556 -4.339158212148133 M96.12371063421489 -5.548287939305138 C96.21666134386241 -5.193826598326709, 96.30961205350995 -4.8393652573482795, 96.44078178754556 -4.339158212148133 M96.44078178754556 -4.339158212148133 C96.516745050067 -3.949102913941781, 96.59270831258843 -3.559047615735429, 96.67973227658177 -3.1121979531509023 M96.44078178754556 -4.339158212148133 C96.50895781523205 -3.9890887189865345, 96.57713384291854 -3.639019225824936, 96.67973227658177 -3.1121979531509023 M96.67973227658177 -3.1121979531509023 C96.72687465117127 -2.746571005149572, 96.77401702576077 -2.3809440571482416, 96.83958020250937 -1.872449005199798 M96.67973227658177 -3.1121979531509023 C96.71907948377142 -2.8070287841729322, 96.75842669096106 -2.501859615194962, 96.83958020250937 -1.872449005199798 M96.83958020250937 -1.872449005199798 C96.8585462522038 -1.5770374720892604, 96.87751230189824 -1.2816259389787228, 96.91966871591342 -0.6250057626472757 M96.83958020250937 -1.872449005199798 C96.85602746323777 -1.6162696433651493, 96.87247472396615 -1.3600902815305007, 96.91966871591342 -0.6250057626472757 M96.91966871591342 -0.6250057626472757 C96.91966871591342 -0.36822967722029404, 96.91966871591342 -0.11145359179331238, 96.91966871591342 0.625005762647271 M96.91966871591342 -0.6250057626472757 C96.91966871591342 -0.2421069175200758, 96.91966871591342 0.1407919276071241, 96.91966871591342 0.625005762647271 M96.91966871591342 0.625005762647271 C96.89029350901889 1.0825483212696658, 96.86091830212438 1.5400908798920607, 96.83958020250937 1.8724490051997846 M96.91966871591342 0.625005762647271 C96.90364679336614 0.8745601389842207, 96.88762487081887 1.1241145153211702, 96.83958020250937 1.8724490051997846 M96.83958020250937 1.8724490051997846 C96.79764488311065 2.1976910613907745, 96.75570956371193 2.5229331175817644, 96.67973227658177 3.1121979531508885 M96.83958020250937 1.8724490051997846 C96.80727399103763 2.123009601791512, 96.7749677795659 2.3735701983832396, 96.67973227658177 3.1121979531508885 M96.67973227658177 3.1121979531508885 C96.585314859945 3.5970114324526623, 96.49089744330823 4.0818249117544365, 96.44078178754556 4.339158212148129 M96.67973227658177 3.1121979531508885 C96.58633123440525 3.591792564410103, 96.49293019222873 4.071387175669317, 96.44078178754556 4.339158212148129 M96.44078178754556 4.339158212148129 C96.3265650492296 4.774716137194395, 96.21234831091365 5.2102740622406625, 96.12371063421489 5.548287939305125 M96.44078178754556 4.339158212148129 C96.33107385784639 4.757522095808565, 96.22136592814722 5.175885979469003, 96.12371063421489 5.548287939305125 M96.12371063421489 5.548287939305125 C96.03938714720078 5.802256847068471, 95.95506366018668 6.056225754831817, 95.72982172997033 6.734618561215495 M96.12371063421489 5.548287939305125 C95.9766884073842 5.991095461708431, 95.82966618055353 6.433902984111737, 95.72982172997033 6.734618561215495 M95.72982172997033 6.734618561215495 C95.59656628364985 7.063762089945862, 95.46331083732937 7.392905618676229, 95.26073364880834 7.893275190886679 M95.72982172997033 6.734618561215495 C95.62065903884252 7.004252518818245, 95.5114963477147 7.273886476420997, 95.26073364880834 7.893275190886679 M95.26073364880834 7.893275190886679 C95.12185014244332 8.181669763484622, 94.98296663607832 8.470064336082565, 94.7183739742735 9.019496659696284 M95.26073364880834 7.893275190886679 C95.07788014533884 8.272974403279308, 94.89502664186935 8.652673615671937, 94.7183739742735 9.019496659696284 M94.7183739742735 9.019496659696284 C94.47897004326587 9.44458258147709, 94.23956611225825 9.869668503257895, 94.10497137860425 10.108655082055236 M94.7183739742735 9.019496659696284 C94.4848471479218 9.434147187039105, 94.2513203215701 9.848797714381929, 94.10497137860425 10.108655082055236 M94.10497137860425 10.108655082055236 C93.90491301412119 10.415998453094025, 93.70485464963815 10.723341824132813, 93.42304646464065 11.156274872382301 M94.10497137860425 10.108655082055236 C93.8411985786256 10.513880935736795, 93.57742577864694 10.919106789418354, 93.42304646464065 11.156274872382301 M93.42304646464065 11.156274872382301 C93.13728494756238 11.53916927185742, 92.85152343048411 11.922063671332538, 92.67540140812659 12.158051136245302 M93.42304646464065 11.156274872382301 C93.1364862406916 11.540239466300571, 92.84992601674256 11.924204060218841, 92.67540140812659 12.158051136245302 M92.67540140812659 12.158051136245302 C92.49282758216322 12.372512740966885, 92.31025375619983 12.58697434568847, 91.86510844296866 13.10986736009567 M92.67540140812659 12.158051136245302 C92.42228358057396 12.455377739301026, 92.16916575302132 12.752704342356749, 91.86510844296866 13.10986736009567 M91.86510844296866 13.10986736009567 C91.6119704546033 13.371253116098265, 91.35883246623793 13.632638872100857, 90.99549723676799 14.007812326905684 M91.86510844296866 13.10986736009567 C91.56694325620671 13.417747395244472, 91.26877806944478 13.725627430393274, 90.99549723676799 14.007812326905684 M90.99549723676799 14.007812326905684 C90.77595176582301 14.207197714763074, 90.55640629487802 14.406583102620464, 90.0701412085019 14.848196188198111 M90.99549723676799 14.007812326905684 C90.76288443506826 14.21906511881191, 90.53027163336853 14.430317910718138, 90.0701412085019 14.848196188198111 M90.0701412085019 14.848196188198111 C89.84451884568189 15.028124018483837, 89.61889648286187 15.208051848769562, 89.09284284457871 15.627565626425152 M90.0701412085019 14.848196188198111 C89.84786422076891 15.025456170876108, 89.62558723303592 15.202716153554107, 89.09284284457871 15.627565626425152 M89.09284284457871 15.627565626425152 C88.71825971442112 15.888858602580726, 88.34367658426355 16.1501515787363, 88.0676180736057 16.34271804539089 M89.09284284457871 15.627565626425152 C88.79823773245022 15.83306939939623, 88.50363262032172 16.038573172367308, 88.0676180736057 16.34271804539089 M88.0676180736057 16.34271804539089 C87.74144316276153 16.540447193161164, 87.41526825191735 16.738176340931442, 86.99867976407678 16.990714730406093 M88.0676180736057 16.34271804539089 C87.71813490027931 16.55457679885244, 87.36865172695292 16.766435552313993, 86.99867976407678 16.990714730406093 M86.99867976407678 16.990714730406093 C86.58850135173607 17.20470454539243, 86.17832293939534 17.418694360378773, 85.89042041279238 17.56889292409717 M86.99867976407678 16.990714730406093 C86.7248373598744 17.133578137274046, 86.45099495567202 17.276441544142, 85.89042041279238 17.56889292409717 M85.89042041279238 17.56889292409717 C85.5241115756507 17.73104698013421, 85.15780273850903 17.89320103617125, 84.7473940951478 18.07487676824742 M85.89042041279238 17.56889292409717 C85.56401472481988 17.71338303968188, 85.2376090368474 17.857873155266585, 84.7473940951478 18.07487676824742 M84.7473940951478 18.07487676824742 C84.44298402544516 18.186902487833834, 84.13857395574252 18.298928207420243, 83.57429775146062 18.506587066708033 M84.7473940951478 18.07487676824742 C84.3275801954977 18.229372164035805, 83.90776629584761 18.38386755982419, 83.57429775146062 18.506587066708033 M83.57429775146062 18.506587066708033 C83.15875999768502 18.62991649082645, 82.74322224390944 18.753245914944866, 82.37595188623541 18.86224982926107 M83.57429775146062 18.506587066708033 C83.19662550751048 18.618678206270374, 82.81895326356033 18.730769345832716, 82.37595188623541 18.86224982926107 M82.37595188623541 18.86224982926107 C81.97069307761022 18.954747507768896, 81.56543426898502 19.047245186276726, 81.15728075967677 19.140403561325773 M82.37595188623541 18.86224982926107 C82.04066475570724 18.938776928851123, 81.70537762517908 19.015304028441175, 81.15728075967677 19.140403561325773 M81.15728075967677 19.140403561325773 C80.83993087379532 19.19171022978996, 80.5225809879139 19.24301689825415, 79.92329215284788 19.3399052695533 M81.15728075967677 19.140403561325773 C80.8136479428224 19.19595945024249, 80.47001512596803 19.251515339159212, 79.92329215284788 19.3399052695533 M79.92329215284788 19.3399052695533 C79.56641461111992 19.374332816795754, 79.20953706939197 19.408760364038212, 78.6790567896239 19.45993515863156 M79.92329215284788 19.3399052695533 C79.65600511255239 19.365690128870906, 79.3887180722569 19.391474988188516, 78.6790567896239 19.45993515863156 M78.6790567896239 19.45993515863156 C78.3778601143416 19.4695939497641, 78.0766634390593 19.47925274089664, 77.4296875 19.5 M78.6790567896239 19.45993515863156 C78.19694884153816 19.475395422160474, 77.71484089345242 19.49085568568939, 77.4296875 19.5 M77.4296875 19.5 C77.4296875 19.5, 77.4296875 19.5, 77.4296875 19.5 M77.4296875 19.5 C77.4296875 19.5, 77.4296875 19.5, 77.4296875 19.5 M77.4296875 19.5 C28.65131838306582 19.5, -20.12705073386836 19.5, -77.4296875 19.5 M77.4296875 19.5 C46.26722144819263 19.5, 15.104755396385265 19.5, -77.4296875 19.5 M-77.4296875 19.5 C-77.87917232085002 19.485585896664467, -78.32865714170003 19.47117179332894, -78.6790567896239 19.45993515863156 M-77.4296875 19.5 C-77.83220376548364 19.48709208681632, -78.23472003096728 19.474184173632644, -78.6790567896239 19.45993515863156 M-78.6790567896239 19.45993515863156 C-79.00089504224387 19.42888780946844, -79.32273329486384 19.397840460305318, -79.92329215284786 19.3399052695533 M-78.6790567896239 19.45993515863156 C-79.13822755563926 19.4156395070677, -79.59739832165461 19.371343855503838, -79.92329215284786 19.3399052695533 M-79.92329215284786 19.3399052695533 C-80.27216840464423 19.2835016627386, -80.62104465644062 19.227098055923904, -81.15728075967675 19.140403561325773 M-79.92329215284786 19.3399052695533 C-80.3560152565674 19.26994595396171, -80.78873836028696 19.199986638370124, -81.15728075967675 19.140403561325773 M-81.15728075967675 19.140403561325773 C-81.4353682270053 19.076931911598347, -81.71345569433385 19.013460261870925, -82.37595188623538 18.862249829261074 M-81.15728075967675 19.140403561325773 C-81.42362040563424 19.079613275164593, -81.68996005159173 19.018822989003418, -82.37595188623538 18.862249829261074 M-82.37595188623538 18.862249829261074 C-82.85350865207583 18.72051348790625, -83.33106541791628 18.578777146551424, -83.57429775146059 18.506587066708043 M-82.37595188623538 18.862249829261074 C-82.69955543245352 18.76620599537321, -83.02315897867166 18.67016216148534, -83.57429775146059 18.506587066708043 M-83.57429775146059 18.506587066708043 C-83.92798732127983 18.37642603554402, -84.28167689109907 18.24626500438, -84.7473940951478 18.074876768247425 M-83.57429775146059 18.506587066708043 C-83.88598038949605 18.391884974748272, -84.19766302753152 18.277182882788498, -84.7473940951478 18.074876768247425 M-84.7473940951478 18.074876768247425 C-85.02040812553577 17.954021555668135, -85.29342215592375 17.833166343088845, -85.89042041279238 17.568892924097174 M-84.7473940951478 18.074876768247425 C-85.06713799854366 17.933335627079973, -85.38688190193952 17.791794485912522, -85.89042041279238 17.568892924097174 M-85.89042041279238 17.568892924097174 C-86.31429968498102 17.34775537930399, -86.73817895716967 17.126617834510807, -86.99867976407678 16.990714730406097 M-85.89042041279238 17.568892924097174 C-86.26569427885364 17.3731127885474, -86.64096814491491 17.177332652997624, -86.99867976407678 16.990714730406097 M-86.99867976407678 16.990714730406097 C-87.23364496082606 16.84827744732792, -87.46861015757534 16.705840164249746, -88.06761807360569 16.3427180453909 M-86.99867976407678 16.990714730406097 C-87.24977952416432 16.83849658021505, -87.50087928425185 16.686278430024004, -88.06761807360569 16.3427180453909 M-88.06761807360569 16.3427180453909 C-88.45417974541151 16.07306935712423, -88.84074141721733 15.803420668857557, -89.09284284457871 15.627565626425156 M-88.06761807360569 16.3427180453909 C-88.47262128020793 16.06020534077142, -88.87762448681016 15.777692636151942, -89.09284284457871 15.627565626425156 M-89.09284284457871 15.627565626425156 C-89.2975393263076 15.464325629448517, -89.50223580803649 15.301085632471876, -90.07014120850187 14.848196188198125 M-89.09284284457871 15.627565626425156 C-89.32772753996365 15.440251332399924, -89.56261223534857 15.252937038374691, -90.07014120850187 14.848196188198125 M-90.07014120850187 14.848196188198125 C-90.33161066470655 14.610736546175747, -90.59308012091122 14.37327690415337, -90.99549723676797 14.007812326905697 M-90.07014120850187 14.848196188198125 C-90.2881269514243 14.65022730406267, -90.50611269434674 14.452258419927215, -90.99549723676797 14.007812326905697 M-90.99549723676797 14.007812326905697 C-91.32048068226776 13.672240237790083, -91.64546412776754 13.33666814867447, -91.86510844296865 13.109867360095677 M-90.99549723676797 14.007812326905697 C-91.1822260453575 13.81499950131672, -91.36895485394702 13.622186675727743, -91.86510844296865 13.109867360095677 M-91.86510844296865 13.109867360095677 C-92.0800733906111 12.85735730074281, -92.29503833825356 12.604847241389946, -92.67540140812658 12.158051136245307 M-91.86510844296865 13.109867360095677 C-92.10842085392991 12.824058757312176, -92.3517332648912 12.538250154528678, -92.67540140812658 12.158051136245307 M-92.67540140812658 12.158051136245307 C-92.84453283213135 11.931430436268613, -93.01366425613612 11.704809736291917, -93.42304646464063 11.156274872382316 M-92.67540140812658 12.158051136245307 C-92.95452812794888 11.784046760650734, -93.23365484777116 11.41004238505616, -93.42304646464063 11.156274872382316 M-93.42304646464063 11.156274872382316 C-93.59286235403773 10.8953920643172, -93.76267824343482 10.634509256252084, -94.10497137860425 10.108655082055249 M-93.42304646464063 11.156274872382316 C-93.63722188374706 10.82724391448208, -93.85139730285348 10.498212956581847, -94.10497137860425 10.108655082055249 M-94.10497137860425 10.108655082055249 C-94.27856846959106 9.800415868396541, -94.45216556057787 9.492176654737833, -94.7183739742735 9.019496659696289 M-94.10497137860425 10.108655082055249 C-94.28536524962752 9.788347497193202, -94.46575912065079 9.468039912331156, -94.7183739742735 9.019496659696289 M-94.7183739742735 9.019496659696289 C-94.9236194442689 8.593300049701304, -95.1288649142643 8.16710343970632, -95.26073364880834 7.893275190886686 M-94.7183739742735 9.019496659696289 C-94.93474946064673 8.570188332548542, -95.15112494701995 8.120880005400794, -95.26073364880834 7.893275190886686 M-95.26073364880834 7.893275190886686 C-95.39471606620282 7.562336029548522, -95.52869848359728 7.231396868210359, -95.72982172997033 6.73461856121551 M-95.26073364880834 7.893275190886686 C-95.37408488668967 7.613295441822695, -95.487436124571 7.333315692758703, -95.72982172997033 6.73461856121551 M-95.72982172997033 6.73461856121551 C-95.87375262914735 6.3011216251688635, -96.01768352832435 5.867624689122218, -96.12371063421489 5.5482879393051325 M-95.72982172997033 6.73461856121551 C-95.85317331264514 6.363103247604666, -95.97652489531997 5.991587933993823, -96.12371063421489 5.5482879393051325 M-96.12371063421489 5.5482879393051325 C-96.22069959424819 5.178426999416972, -96.31768855428149 4.808566059528812, -96.44078178754556 4.339158212148136 M-96.12371063421489 5.5482879393051325 C-96.23980467857862 5.105571032669078, -96.35589872294237 4.662854126033025, -96.44078178754556 4.339158212148136 M-96.44078178754556 4.339158212148136 C-96.49434080127804 4.064143996333366, -96.54789981501054 3.789129780518596, -96.67973227658177 3.112197953150904 M-96.44078178754556 4.339158212148136 C-96.53253598511793 3.868019799870505, -96.62429018269032 3.3968813875928734, -96.67973227658177 3.112197953150904 M-96.67973227658177 3.112197953150904 C-96.7227559181008 2.7785150855082845, -96.76577955961984 2.4448322178656645, -96.83958020250937 1.872449005199809 M-96.67973227658177 3.112197953150904 C-96.72503556845749 2.760834567509726, -96.77033886033321 2.4094711818685477, -96.83958020250937 1.872449005199809 M-96.83958020250937 1.872449005199809 C-96.85677412059131 1.6046398523927055, -96.87396803867325 1.336830699585602, -96.91966871591342 0.6250057626472781 M-96.83958020250937 1.872449005199809 C-96.87018663062901 1.3957291821723035, -96.90079305874865 0.9190093591447979, -96.91966871591342 0.6250057626472781 M-96.91966871591342 0.6250057626472781 C-96.91966871591342 0.18072057126550978, -96.91966871591342 -0.2635646201162586, -96.91966871591342 -0.6250057626472687 M-96.91966871591342 0.6250057626472781 C-96.91966871591342 0.16971695830791245, -96.91966871591342 -0.28557184603145325, -96.91966871591342 -0.6250057626472687 M-96.91966871591342 -0.6250057626472687 C-96.89377848455052 -1.02826701434292, -96.86788825318763 -1.4315282660385713, -96.83958020250937 -1.8724490051997822 M-96.91966871591342 -0.6250057626472687 C-96.89957622960264 -0.93796245530055, -96.87948374329187 -1.2509191479538313, -96.83958020250937 -1.8724490051997822 M-96.83958020250937 -1.8724490051997822 C-96.78523076608406 -2.2939725016043035, -96.73088132965876 -2.7154959980088247, -96.67973227658177 -3.112197953150895 M-96.83958020250937 -1.8724490051997822 C-96.79418882127855 -2.224495594483926, -96.74879744004774 -2.57654218376807, -96.67973227658177 -3.112197953150895 M-96.67973227658177 -3.112197953150895 C-96.63156827625401 -3.359509915368863, -96.58340427592626 -3.606821877586831, -96.44078178754556 -4.339158212148126 M-96.67973227658177 -3.112197953150895 C-96.59144581650166 -3.5655302663123045, -96.50315935642156 -4.018862579473714, -96.44078178754556 -4.339158212148126 M-96.44078178754556 -4.339158212148126 C-96.3596964989896 -4.648371559998337, -96.27861121043365 -4.957584907848548, -96.12371063421489 -5.548287939305123 M-96.44078178754556 -4.339158212148126 C-96.3435960817709 -4.709769428818244, -96.24641037599623 -5.080380645488361, -96.12371063421489 -5.548287939305123 M-96.12371063421489 -5.548287939305123 C-96.03840310581317 -5.805220622942237, -95.95309557741146 -6.062153306579351, -95.72982172997033 -6.734618561215485 M-96.12371063421489 -5.548287939305123 C-96.00241899125125 -5.913599042712709, -95.8811273482876 -6.278910146120296, -95.72982172997033 -6.734618561215485 M-95.72982172997033 -6.734618561215485 C-95.5931170848766 -7.072281677601522, -95.45641243978285 -7.40994479398756, -95.26073364880834 -7.893275190886676 M-95.72982172997033 -6.734618561215485 C-95.55995282643143 -7.154198037148387, -95.39008392289253 -7.573777513081289, -95.26073364880834 -7.893275190886676 M-95.26073364880834 -7.893275190886676 C-95.10101204246976 -8.224940523943653, -94.94129043613117 -8.556605857000632, -94.7183739742735 -9.019496659696282 M-95.26073364880834 -7.893275190886676 C-95.12320190486717 -8.17886279988841, -94.98567016092602 -8.464450408890144, -94.7183739742735 -9.019496659696282 M-94.7183739742735 -9.019496659696282 C-94.47440696061793 -9.452684796780744, -94.23043994696235 -9.885872933865206, -94.10497137860425 -10.108655082055243 M-94.7183739742735 -9.019496659696282 C-94.50262217284417 -9.402585830372985, -94.28687037141485 -9.785675001049688, -94.10497137860425 -10.108655082055243 M-94.10497137860425 -10.108655082055243 C-93.88192871118696 -10.451308514550535, -93.65888604376967 -10.793961947045824, -93.42304646464063 -11.156274872382308 M-94.10497137860425 -10.108655082055243 C-93.84626046609864 -10.50610451727108, -93.58754955359304 -10.903553952486918, -93.42304646464063 -11.156274872382308 M-93.42304646464063 -11.156274872382308 C-93.22220141628695 -11.425388939815925, -93.02135636793328 -11.69450300724954, -92.67540140812659 -12.158051136245302 M-93.42304646464063 -11.156274872382308 C-93.16804482241353 -11.497953841839106, -92.91304318018645 -11.839632811295902, -92.67540140812659 -12.158051136245302 M-92.67540140812659 -12.158051136245302 C-92.4203102271816 -12.457695752482675, -92.16521904623661 -12.757340368720046, -91.86510844296866 -13.10986736009567 M-92.67540140812659 -12.158051136245302 C-92.47364839924711 -12.395041700546564, -92.27189539036762 -12.632032264847824, -91.86510844296866 -13.10986736009567 M-91.86510844296866 -13.10986736009567 C-91.58103833104538 -13.403193073246387, -91.29696821912209 -13.696518786397103, -90.99549723676799 -14.007812326905677 M-91.86510844296866 -13.10986736009567 C-91.61868942714891 -13.364315225307013, -91.37227041132915 -13.618763090518359, -90.99549723676799 -14.007812326905677 M-90.99549723676799 -14.007812326905677 C-90.69689005277321 -14.27899947069659, -90.39828286877845 -14.550186614487503, -90.0701412085019 -14.848196188198107 M-90.99549723676799 -14.007812326905677 C-90.6413131827093 -14.329472913605242, -90.2871291286506 -14.651133500304807, -90.0701412085019 -14.848196188198107 M-90.0701412085019 -14.848196188198107 C-89.7134539586193 -15.132644778133123, -89.3567667087367 -15.41709336806814, -89.09284284457871 -15.627565626425149 M-90.0701412085019 -14.848196188198107 C-89.85866042136655 -15.016846488198446, -89.64717963423121 -15.185496788198785, -89.09284284457871 -15.627565626425149 M-89.09284284457871 -15.627565626425149 C-88.81652447658688 -15.820313358306889, -88.54020610859506 -16.01306109018863, -88.06761807360571 -16.342718045390885 M-89.09284284457871 -15.627565626425149 C-88.81673206993636 -15.820168550172864, -88.540621295294 -16.01277147392058, -88.06761807360571 -16.342718045390885 M-88.06761807360571 -16.342718045390885 C-87.69123884003821 -16.570881348629392, -87.3148596064707 -16.7990446518679, -86.99867976407678 -16.99071473040609 M-88.06761807360571 -16.342718045390885 C-87.66416807425281 -16.58729180593398, -87.26071807489991 -16.83186556647707, -86.99867976407678 -16.99071473040609 M-86.99867976407678 -16.99071473040609 C-86.61176055914224 -17.192570231786863, -86.2248413542077 -17.39442573316764, -85.8904204127924 -17.56889292409717 M-86.99867976407678 -16.99071473040609 C-86.73271781296577 -17.129466909943947, -86.46675586185476 -17.2682190894818, -85.8904204127924 -17.56889292409717 M-85.8904204127924 -17.56889292409717 C-85.52581960459764 -17.730290886386285, -85.1612187964029 -17.8916888486754, -84.74739409514781 -18.07487676824742 M-85.8904204127924 -17.56889292409717 C-85.45025684825099 -17.763740277131426, -85.01009328370958 -17.95858763016568, -84.74739409514781 -18.07487676824742 M-84.74739409514781 -18.07487676824742 C-84.47802862099867 -18.174005752721452, -84.20866314684953 -18.27313473719548, -83.57429775146062 -18.506587066708033 M-84.74739409514781 -18.07487676824742 C-84.37729543472757 -18.211076496436583, -84.00719677430733 -18.34727622462574, -83.57429775146062 -18.506587066708033 M-83.57429775146062 -18.506587066708033 C-83.14984609177945 -18.632562091309175, -82.72539443209828 -18.75853711591032, -82.37595188623541 -18.862249829261067 M-83.57429775146062 -18.506587066708033 C-83.10970891678184 -18.644474594164137, -82.64512008210305 -18.782362121620245, -82.37595188623541 -18.862249829261067 M-82.37595188623541 -18.862249829261067 C-82.1249388902964 -18.919541907571265, -81.8739258943574 -18.976833985881466, -81.15728075967677 -19.140403561325773 M-82.37595188623541 -18.862249829261067 C-82.12326585899808 -18.91992376604756, -81.87057983176075 -18.977597702834053, -81.15728075967677 -19.140403561325773 M-81.15728075967677 -19.140403561325773 C-80.88431095006854 -19.18453520323074, -80.61134114046031 -19.22866684513571, -79.92329215284788 -19.3399052695533 M-81.15728075967677 -19.140403561325773 C-80.8476083459364 -19.19046899563388, -80.53793593219604 -19.240534429941988, -79.92329215284788 -19.3399052695533 M-79.92329215284788 -19.3399052695533 C-79.5231262933954 -19.37850878874482, -79.12296043394294 -19.417112307936343, -78.6790567896239 -19.45993515863156 M-79.92329215284788 -19.3399052695533 C-79.52111536862053 -19.37870278023936, -79.11893858439319 -19.417500290925425, -78.6790567896239 -19.45993515863156 M-78.6790567896239 -19.45993515863156 C-78.28869374335692 -19.472453341729764, -77.89833069708993 -19.484971524827973, -77.4296875 -19.5 M-78.6790567896239 -19.45993515863156 C-78.32886563230869 -19.47116510744092, -77.97867447499348 -19.482395056250283, -77.4296875 -19.5 M-77.4296875 -19.5 C-77.4296875 -19.5, -77.4296875 -19.5, -77.4296875 -19.5 M-77.4296875 -19.5 C-77.4296875 -19.5, -77.4296875 -19.5, -77.4296875 -19.5" stroke="#9370DB" stroke-width="1.3" fill="none" stroke-dasharray="0 0" style=""></path></g><g class="label" style="" transform="translate(-84.5546875, -12)"><rect></rect><foreignObject width="169.109375" height="24"><div xmlns="http://www.w3.org/1999/xhtml" style="display: table-cell; white-space: nowrap; line-height: 1.5; max-width: 200px; text-align: center;"><span class="nodeLabel"><p>triggerBehaviour called</p></span></div></foreignObject></g></g><g class="node default" id="container-flowchart-CheckAI-1" data-look="classic" transform="translate(299.1015625, 188.3828125)"><polygon points="91.3828125,0 182.765625,-91.3828125 91.3828125,-182.765625 0,-91.3828125" class="label-container" transform="translate(-90.8828125, 91.3828125)"></polygon><g class="label" style="" transform="translate(-64.3828125, -12)"><rect></rect><foreignObject width="128.765625" height="24"><div xmlns="http://www.w3.org/1999/xhtml" style="display: table-cell; white-space: nowrap; line-height: 1.5; max-width: 200px; text-align: center;"><span class="nodeLabel"><p>Is AI Mode active?</p></span></div></foreignObject></g></g><g class="node default" id="container-flowchart-LimitCheck-3" data-look="classic" transform="translate(225.5703125, 465.828125)"><polygon points="112.0625,0 224.125,-112.0625 112.0625,-224.125 0,-112.0625" class="label-container" transform="translate(-111.5625, 112.0625)"></polygon><g class="label" style="" transform="translate(-85.0625, -12)"><rect></rect><foreignObject width="170.125" height="24"><div xmlns="http://www.w3.org/1999/xhtml" style="display: table-cell; white-space: nowrap; line-height: 1.5; max-width: 200px; text-align: center;"><span class="nodeLabel"><p>Under daily 15-req cap?</p></span></div></foreignObject></g></g><g class="node default" id="container-flowchart-StartThread-5" data-look="classic" transform="translate(138, 690.890625)"><rect class="basic label-container" style="" x="-130" y="-39" width="260" height="78"></rect><g class="label" style="" transform="translate(-100, -24)"><rect></rect><foreignObject width="200" height="48"><div xmlns="http://www.w3.org/1999/xhtml" style="display: table; white-space: break-spaces; line-height: 1.5; max-width: 200px; text-align: center; width: 200px;"><span class="nodeLabel"><p>Launch queryGeminiTask in background</p></span></div></foreignObject></g></g><g class="node default" id="container-flowchart-Fallback-7" data-look="classic" transform="translate(372.546875, 1256.53125)"><rect class="basic label-container" style="" x="-124.03125" y="-27" width="248.0625" height="54"></rect><g class="label" style="" transform="translate(-94.03125, -12)"><rect></rect><foreignObject width="188.0625" height="24"><div xmlns="http://www.w3.org/1999/xhtml" style="display: table-cell; white-space: nowrap; line-height: 1.5; max-width: 200px; text-align: center;"><span class="nodeLabel"><p>Load Local Fallback Quote</p></span></div></foreignObject></g></g><g class="node default" id="container-flowchart-HTTPSReq-11" data-look="classic" transform="translate(138, 842.890625)"><rect class="basic label-container" style="" x="-130" y="-39" width="260" height="78"></rect><g class="label" style="" transform="translate(-100, -24)"><rect></rect><foreignObject width="200" height="48"><div xmlns="http://www.w3.org/1999/xhtml" style="display: table; white-space: break-spaces; line-height: 1.5; max-width: 200px; text-align: center; width: 200px;"><span class="nodeLabel"><p>Send secure HTTPS POST to Gemini 2.5 Flash</p></span></div></foreignObject></g></g><g class="node default" id="container-flowchart-RespCheck-13" data-look="classic" transform="translate(138, 1043.7109375)"><polygon points="111.8203125,0 223.640625,-111.8203125 111.8203125,-223.640625 0,-111.8203125" class="label-container" transform="translate(-111.3203125, 111.8203125)"></polygon><g class="label" style="" transform="translate(-84.8203125, -12)"><rect></rect><foreignObject width="169.640625" height="24"><div xmlns="http://www.w3.org/1999/xhtml" style="display: table-cell; white-space: nowrap; line-height: 1.5; max-width: 200px; text-align: center;"><span class="nodeLabel"><p>HTTP 200 &amp; Valid JSON?</p></span></div></foreignObject></g></g><g class="node default" id="container-flowchart-SetNewResp-15" data-look="classic" transform="translate(225.5703125, 1604.53125)"><rect class="basic label-container" style="" x="-130" y="-39" width="260" height="78"></rect><g class="label" style="" transform="translate(-100, -24)"><rect></rect><foreignObject width="200" height="48"><div xmlns="http://www.w3.org/1999/xhtml" style="display: table; white-space: break-spaces; line-height: 1.5; max-width: 200px; text-align: center; width: 200px;"><span class="nodeLabel"><p>Store response, set hasNewAIResponse = true</p></span></div></foreignObject></g></g><g class="node default" id="container-flowchart-SelectLocal-19" data-look="classic" transform="translate(372.546875, 1372.53125)"><rect class="basic label-container" style="" x="-130" y="-39" width="260" height="78"></rect><g class="label" style="" transform="translate(-100, -24)"><rect></rect><foreignObject width="200" height="48"><div xmlns="http://www.w3.org/1999/xhtml" style="display: table; white-space: break-spaces; line-height: 1.5; max-width: 200px; text-align: center; width: 200px;"><span class="nodeLabel"><p>Pick 1 of 20 category-specific quotes</p></span></div></foreignObject></g></g><g class="node default" id="container-flowchart-Personalize-21" data-look="classic" transform="translate(372.546875, 1488.53125)"><rect class="basic label-container" style="" x="-90.1171875" y="-27" width="180.234375" height="54"></rect><g class="label" style="" transform="translate(-60.1171875, -12)"><rect></rect><foreignObject width="120.234375" height="24"><div xmlns="http://www.w3.org/1999/xhtml" style="display: table-cell; white-space: nowrap; line-height: 1.5; max-width: 200px; text-align: center;"><span class="nodeLabel"><p>Insert userName</p></span></div></foreignObject></g></g></g></g></g><defs><filter id="container-drop-shadow" height="130%" width="130%"><feDropShadow dx="4" dy="4" stdDeviation="0" flood-opacity="0.06" flood-color="#000000"></feDropShadow></filter></defs><defs><filter id="container-drop-shadow-small" height="150%" width="150%"><feDropShadow dx="2" dy="2" stdDeviation="0" flood-opacity="0.06" flood-color="#000000"></feDropShadow></filter></defs></svg>